<svg xmlns="http://www.w3.org/2000/svg" xmlns:svg="http://www.w3.org/2000/svg" id="svg3751" width="16" height="16" version="1.1"><metadata id="metadata3756"/><g id="layer1"><path id="path654" d="m 14.049687,6.51125 c 0.2325,0 0.43125,0.0825 0.59625,0.245625 0.165,0.165 0.2475,0.36375 0.2475,0.59625 l 0,1.29375 c 0,0.234375 -0.0825,0.43125 -0.2475,0.59625 -0.165,0.165 -0.36375,0.2475 -0.59625,0.2475 l -4.5599995,0 0,4.543125 c 0,0.245625 -0.0825,0.45 -0.245625,0.613125 -0.165,0.165 -0.365625,0.2475 -0.598125,0.2475 l -1.291875,0 c -0.2325,0 -0.433125,-0.0825 -0.598125,-0.2475 -0.165,-0.163125 -0.245625,-0.361875 -0.245625,-0.59625 l 0,-4.56 -4.54125,0 c -0.245625,0 -0.451875,-0.07875 -0.615,-0.238125 -0.165,-0.1575 -0.2475,-0.36 -0.2475,-0.605625 l 0,-1.29375 c 0,-0.2325 0.0825,-0.43125 0.2475,-0.59625 0.163125,-0.163125 0.361875,-0.245625 0.59625,-0.245625 l 4.56,0 0,-4.543125 c 0,-0.245625 0.07875,-0.45 0.23625,-0.615 0.159375,-0.163125 0.361875,-0.2475 0.6075,-0.2475 l 1.291875,0 c 0.2325,0 0.433125,0.084375 0.598125,0.2475 0.163125,0.165 0.245625,0.36375 0.245625,0.59625 l 0,4.561875 z" style="fill:#fff;stroke:none;fill-opacity:1"/></g></svg>