<svg xmlns="http://www.w3.org/2000/svg" xmlns:svg="http://www.w3.org/2000/svg" id="svg4545" width="16" height="16" version="1.1"><metadata id="metadata4550"/><g id="layer1"><path id="path670" d="m 14.63375,12.532813 c 0.1725,0.174375 0.260625,0.373125 0.260625,0.59625 0,0.225 -0.08812,0.425625 -0.260625,0.598125 l -0.898125,0.915 c -0.1725,0.174375 -0.376875,0.260625 -0.61125,0.260625 -0.2325,0 -0.433125,-0.08625 -0.6,-0.260625 L 8,10.110313 3.45875,14.642188 c -0.174375,0.174375 -0.373125,0.260625 -0.59625,0.260625 -0.225,0 -0.425625,-0.08625 -0.598125,-0.260625 L 1.36625,13.744063 c -0.174375,-0.170625 -0.260625,-0.375 -0.260625,-0.605625 0,-0.22875 0.08625,-0.43125 0.260625,-0.605625 l 4.56,-4.5768755 -4.56,-4.48875 c -0.174375,-0.174375 -0.260625,-0.375 -0.260625,-0.605625 0,-0.230625 0.08625,-0.433125 0.260625,-0.60375 l 0.898125,-0.9 c 0.1725,-0.174375 0.376875,-0.260625 0.61125,-0.260625 0.2325,0 0.433125,0.08625 0.6,0.260625 L 8,5.8821875 12.524375,1.3578125 c 0.1725,-0.174375 0.375,-0.260625 0.605625,-0.260625 0.22875,0 0.433125,0.08625 0.605625,0.260625 l 0.898125,0.9 c 0.1725,0.170625 0.260625,0.375 0.260625,0.609375 0,0.2325 -0.08812,0.433125 -0.260625,0.6 l -4.561875,4.576875 z" style="fill:#262626;stroke:none"/></g></svg>